# xmcd CD database file
#
# Track frame offsets:
#	150
#	21775
#	42427
#	65077
#	88135
#	109425
#	130725
#	152325
#	172800
#	195450
#
# Disc length: 2909 seconds
#
# Revision: 0
# Processed by: cddbd v1.5.1PL0 Copyright (c) Steve Scherf et al.
# Submitted via: CDex 1.51
#
DISCID=7f0b5b0a
DTITLE=TRINITY - desires
DYEAR=1999
DGENRE=JPop
TTITLE0=desires  HΛL'S MIX
TTITLE1=desires  Tiny Voice, Production Remix
TTITLE2=desires  Funky Junky Mix
TTITLE3=desires  D-Z GAZING THE SUN MIX
TTITLE4=desires  ORIGINAL MIX
TTITLE5=desires  ORIGINAL MIX (Instrumental)
TTITLE6=desires  HΛL'S MIX (Instrumental)
TTITLE7=desires  Tiny Voice, Production Remix (Instrumental)
TTITLE8=desires  Funky Junky Mix (Instrumental)
TTITLE9=desires  D-Z GAZING THE SUN MIX (Instrumental)
EXTD=YEAR: 1999
EXTT0=
EXTT1=
EXTT2=
EXTT3=
EXTT4=
EXTT5=
EXTT6=
EXTT7=
EXTT8=
EXTT9=
PLAYORDER=
